<svg width="227" height="20" viewBox="0 0 227 20" fill="none" xmlns="http://www.w3.org/2000/svg">
<path d="M4.525 16.825H13.5V19H0.925V17.3L8.05 10.425C9.9 8.625 10.25 7.525 10.25 6.425C10.25 4.625 8.975 3.525 6.525 3.525C4.65 3.525 3.125 4.125 2.05 5.425L0.35 3.95C1.7 2.275 4.025 1.3 6.75 1.3C10.4 1.3 12.75 3.175 12.75 6.175C12.75 7.875 12.25 9.4 9.875 11.675L4.525 16.825ZM22.6322 19.2C18.5322 19.2 15.4822 15.95 15.4822 10.25C15.4822 4.55 18.5322 1.3 22.6322 1.3C26.7072 1.3 29.7572 4.55 29.7572 10.25C29.7572 15.95 26.7072 19.2 22.6322 19.2ZM22.6322 16.975C25.3572 16.975 27.2572 14.725 27.2572 10.25C27.2572 5.775 25.3572 3.525 22.6322 3.525C19.8822 3.525 17.9822 5.775 17.9822 10.25C17.9822 14.725 19.8822 16.975 22.6322 16.975ZM44.0029 9.275V11.25H39.4529V15.725H37.3529V11.25H32.8029V9.275H37.3529V4.775H39.4529V9.275H44.0029ZM68.6676 1.5L61.7176 12.95V19H59.2426V12.9L52.2926 1.5H54.9676L60.5676 10.725L66.1926 1.5H68.6676ZM81.3398 12.45C81.3398 12.65 81.3148 12.95 81.2898 13.175H70.5398C70.8398 15.5 72.7148 17.05 75.3398 17.05C76.8898 17.05 78.1898 16.525 79.1648 15.45L80.4898 17C79.2898 18.4 77.4648 19.15 75.2648 19.15C70.9898 19.15 68.1398 16.325 68.1398 12.375C68.1398 8.45 70.9648 5.625 74.7898 5.625C78.6148 5.625 81.3398 8.375 81.3398 12.45ZM74.7898 7.65C72.4898 7.65 70.7898 9.2 70.5398 11.45H79.0398C78.7898 9.225 77.1148 7.65 74.7898 7.65ZM89.1313 5.625C92.7563 5.625 94.8063 7.375 94.8063 11V19H92.5313V17.25C91.7313 18.45 90.2563 19.15 88.1813 19.15C85.1813 19.15 83.2813 17.55 83.2813 15.25C83.2813 13.125 84.6563 11.375 88.6063 11.375H92.4063V10.9C92.4063 8.875 91.2313 7.7 88.8563 7.7C87.2813 7.7 85.6813 8.25 84.6563 9.125L83.6563 7.325C85.0313 6.225 87.0063 5.625 89.1313 5.625ZM88.5813 17.3C90.3813 17.3 91.8063 16.475 92.4063 14.95V13.1H88.7063C86.3313 13.1 85.6563 14.025 85.6563 15.15C85.6563 16.475 86.7563 17.3 88.5813 17.3ZM101.548 7.975C102.398 6.425 104.048 5.625 106.373 5.625V7.95C106.173 7.925 105.998 7.925 105.823 7.925C103.248 7.925 101.648 9.5 101.648 12.4V19H99.2477V5.75H101.548V7.975ZM113.228 19.15C111.028 19.15 108.853 18.475 107.753 17.6L108.753 15.7C109.878 16.5 111.678 17.075 113.403 17.075C115.628 17.075 116.553 16.4 116.553 15.275C116.553 12.3 108.178 14.875 108.178 9.6C108.178 7.225 110.303 5.625 113.703 5.625C115.428 5.625 117.378 6.075 118.528 6.825L117.503 8.725C116.303 7.95 114.978 7.675 113.678 7.675C111.578 7.675 110.553 8.45 110.553 9.5C110.553 12.625 118.953 10.075 118.953 15.225C118.953 17.625 116.753 19.15 113.228 19.15ZM136.917 19.2C131.542 19.2 127.592 15.375 127.592 10.25C127.592 5.125 131.542 1.3 136.917 1.3C142.242 1.3 146.192 5.1 146.192 10.25C146.192 15.4 142.242 19.2 136.917 19.2ZM136.917 16.975C140.792 16.975 143.692 14.125 143.692 10.25C143.692 6.375 140.792 3.525 136.917 3.525C132.992 3.525 130.092 6.375 130.092 10.25C130.092 14.125 132.992 16.975 136.917 16.975ZM154.513 2.275C153.088 2.275 152.363 3.075 152.363 4.6V5.75H156.213V7.725H152.413V19H150.013V7.725H147.763V5.75H150.013V4.575C150.013 2 151.563 0.299999 154.388 0.299999C155.413 0.299999 156.413 0.549999 157.088 1.075L156.363 2.9C155.863 2.525 155.213 2.275 154.513 2.275ZM169.015 19V3.675H163.015V1.5H177.49V3.675H171.49V19H169.015ZM181.846 7.975C182.696 6.425 184.346 5.625 186.671 5.625V7.95C186.471 7.925 186.296 7.925 186.121 7.925C183.546 7.925 181.946 9.5 181.946 12.4V19H179.546V5.75H181.846V7.975ZM199.749 5.75H202.149V19H199.874V17C198.899 18.375 197.249 19.15 195.374 19.15C191.949 19.15 189.674 17.275 189.674 13.375V5.75H192.074V13.1C192.074 15.7 193.374 17 195.649 17C198.149 17 199.749 15.45 199.749 12.6V5.75ZM210.518 19.15C208.318 19.15 206.143 18.475 205.043 17.6L206.043 15.7C207.168 16.5 208.968 17.075 210.693 17.075C212.918 17.075 213.843 16.4 213.843 15.275C213.843 12.3 205.468 14.875 205.468 9.6C205.468 7.225 207.593 5.625 210.993 5.625C212.718 5.625 214.668 6.075 215.818 6.825L214.793 8.725C213.593 7.95 212.268 7.675 210.968 7.675C208.868 7.675 207.843 8.45 207.843 9.5C207.843 12.625 216.243 10.075 216.243 15.225C216.243 17.625 214.043 19.15 210.518 19.15ZM225.943 16.5L226.693 18.225C225.968 18.85 224.868 19.15 223.793 19.15C221.118 19.15 219.593 17.675 219.593 15V7.725H217.343V5.75H219.593V2.85H221.993V5.75H225.793V7.725H221.993V14.9C221.993 16.325 222.743 17.125 224.068 17.125C224.768 17.125 225.443 16.9 225.943 16.5Z" fill="#F7B79D"/>
</svg>
