<svg width="37" height="43" viewBox="0 0 37 43" fill="none" xmlns="http://www.w3.org/2000/svg">
<path d="M18.444 21.079C16.3594 21.079 14.3216 20.4609 12.5883 19.3027C10.855 18.1446 9.50406 16.4984 8.70631 14.5725C7.90856 12.6466 7.69984 10.5273 8.10652 8.48278C8.51321 6.43822 9.51705 4.56017 10.9911 3.08612C12.4651 1.61208 14.3432 0.60824 16.3877 0.201551C18.4323 -0.205137 20.5515 0.00359023 22.4775 0.801338C24.4034 1.59909 26.0495 2.95002 27.2077 4.68332C28.3658 6.41661 28.984 8.45441 28.984 10.539C28.9841 11.9232 28.7116 13.2938 28.182 14.5727C27.6523 15.8515 26.876 17.0135 25.8972 17.9922C24.9184 18.971 23.7565 19.7473 22.4776 20.277C21.1988 20.8066 19.8282 21.0792 18.444 21.079ZM11.066 23.714H12.441C14.3231 24.5819 16.371 25.0314 18.4435 25.0314C20.516 25.0314 22.5639 24.5819 24.446 23.714H25.821C28.7561 23.7146 31.5708 24.8807 33.6463 26.956C35.7218 29.0313 36.8882 31.8459 36.889 34.781V38.206C36.8887 39.2541 36.4723 40.2591 35.7312 41.0002C34.9901 41.7413 33.9851 42.1578 32.937 42.158H3.952C2.90395 42.1578 1.89889 41.7413 1.15781 41.0002C0.41672 40.2591 0.000265095 39.2541 0 38.206L0 34.781C0.00079526 31.8461 1.16703 29.0316 3.24233 26.9564C5.31762 24.8811 8.13209 23.7148 11.067 23.714H11.066Z" fill="black"/>
</svg>
