<svg width="26" height="29" viewBox="0 0 26 29" fill="none" xmlns="http://www.w3.org/2000/svg">
<path d="M13.045 14.781C14.4513 14.781 15.8259 14.364 16.9951 13.5828C18.1644 12.8015 19.0757 11.6911 19.6138 10.3919C20.152 9.09273 20.2928 7.66315 20.0184 6.28395C19.7441 4.90474 19.0669 3.63786 18.0726 2.64351C17.0782 1.64916 15.8113 0.971996 14.4321 0.697655C13.0529 0.423314 11.6233 0.564116 10.3241 1.10225C9.02497 1.64039 7.91454 2.5517 7.13328 3.72093C6.35202 4.89017 5.93503 6.26481 5.93503 7.67104C5.9349 8.60477 6.11871 9.52939 6.47598 10.3921C6.83324 11.2548 7.35695 12.0386 8.01721 12.6989C8.67746 13.3591 9.46131 13.8828 10.324 14.2401C11.1867 14.5974 12.1113 14.7812 13.045 14.781ZM18.021 16.562H17.093C15.8232 17.1478 14.4414 17.4511 13.043 17.4511C11.6446 17.4511 10.2629 17.1478 8.99303 16.562H8.06803C6.08887 16.5626 4.19088 17.3488 2.79112 18.748C1.39136 20.1472 0.604353 22.0449 0.603027 24.024L0.603027 26.335C0.603292 27.042 0.884259 27.72 1.38417 28.2199C1.88409 28.7198 2.56204 29.0008 3.26903 29.001H22.82C23.527 29.0008 24.205 28.7198 24.7049 28.2199C25.2048 27.72 25.4858 27.042 25.486 26.335V24.024C25.4847 22.0449 24.6977 20.1472 23.2979 18.748C21.8982 17.3488 20.0002 16.5626 18.021 16.562Z" fill="#929292"/>
</svg>
