<svg width="41" height="36" viewBox="0 0 41 36" fill="none" xmlns="http://www.w3.org/2000/svg">
<path d="M5.27182 5.26012C6.15413 4.37677 7.2019 3.676 8.35523 3.19787C9.50856 2.71975 10.7448 2.47365 11.9933 2.47365C13.2418 2.47365 14.4781 2.71975 15.6314 3.19787C16.7847 3.676 17.8325 4.37677 18.7148 5.26012L20.5468 7.09212L22.3788 5.26012C23.2575 4.35964 24.3062 3.64254 25.4642 3.15041C26.6221 2.65829 27.8662 2.40092 29.1244 2.39324C30.3825 2.38556 31.6297 2.62772 32.7935 3.10567C33.9574 3.58363 35.0148 4.28787 35.9044 5.17756C36.794 6.06725 37.4982 7.1247 37.9761 8.28859C38.4539 9.45248 38.696 10.6997 38.6882 11.9578C38.6804 13.2159 38.423 14.46 37.9308 15.6179C37.4386 16.7758 36.7214 17.8245 35.8208 18.7031L33.9888 20.5351L20.5468 33.9781L7.10383 20.5351L5.27182 18.7031C4.38847 17.8208 3.6877 16.7731 3.20958 15.6197C2.73145 14.4664 2.48535 13.2301 2.48535 11.9816C2.48535 10.7331 2.73145 9.49686 3.20958 8.34353C3.6877 7.1902 4.38847 6.14243 5.27182 5.26012Z" stroke="black" stroke-width="3" stroke-linecap="round" stroke-linejoin="round"/>
</svg>
