<svg width="36" height="36" viewBox="0 0 36 36" fill="none" xmlns="http://www.w3.org/2000/svg">
<path d="M30.2168 16.138C30.2168 18.9174 29.3927 21.6344 27.8485 23.9454C26.3043 26.2564 24.1095 28.0576 21.5417 29.1212C18.9738 30.1849 16.1483 30.4632 13.4222 29.9209C10.6962 29.3787 8.19222 28.0403 6.22688 26.0749C4.26153 24.1096 2.92311 21.6056 2.38087 18.8796C1.83863 16.1535 2.11693 13.328 3.18057 10.7601C4.24421 8.19226 6.04541 5.99748 8.35642 4.45332C10.6674 2.90916 13.3844 2.08496 16.1638 2.08496C18.0093 2.08496 19.8367 2.44845 21.5417 3.15468C23.2467 3.86091 24.7959 4.89605 26.1008 6.20099C27.4058 7.50593 28.4409 9.05512 29.1471 10.7601C29.8534 12.4651 30.2168 14.2925 30.2168 16.138Z" stroke="black" stroke-width="3" stroke-linecap="round" stroke-linejoin="round"/>
<path d="M33.7299 33.704L26.0889 26.063" stroke="black" stroke-width="3" stroke-linecap="round" stroke-linejoin="round"/>
</svg>
