<svg width="280" height="32" viewBox="0 0 280 32" fill="none" xmlns="http://www.w3.org/2000/svg">
<path d="M15.062 9.228C15.9406 9.8433 16.7167 10.5932 17.362 11.45V0H21.024V31.2H17.595V28.047C16.8389 29.3199 15.7534 30.3653 14.453 31.073C13.1632 31.7125 11.7383 32.0318 10.299 32.004C9.04072 31.9965 7.80022 31.7064 6.66911 31.1551C5.538 30.6038 4.54519 29.8055 3.76402 28.819C1.83158 26.4299 0.848143 23.412 1.002 20.343C0.927951 17.2899 1.80859 14.2898 3.52104 11.761C4.30946 10.5896 5.3857 9.64055 6.64653 9.00488C7.90735 8.36922 9.31038 8.06831 10.721 8.13101C12.2429 8.07643 13.7488 8.45696 15.062 9.228ZM6.56199 26.222C7.08607 27.0372 7.82065 27.6956 8.68809 28.1278C9.55553 28.5599 10.5236 28.7497 11.49 28.677C12.3428 28.6832 13.1839 28.4788 13.9387 28.0819C14.6935 27.6851 15.3387 27.108 15.817 26.402C17.0656 24.4629 17.6596 22.1746 17.512 19.873C17.512 17.0063 16.9294 14.8867 15.764 13.514C15.2494 12.8637 14.5929 12.3396 13.8446 11.9819C13.0964 11.6241 12.2763 11.4422 11.447 11.45C10.5548 11.4268 9.6696 11.6138 8.86302 11.996C8.05644 12.3782 7.35108 12.9448 6.804 13.65C5.618 15.1167 5.02501 17.2753 5.02501 20.126C4.94841 22.2622 5.48005 24.3762 6.55803 26.222H6.56199Z" fill="#212121"/>
<path d="M26.7141 0.105957H30.587V4.42294H26.7141V0.105957ZM26.7141 8.63495H30.587V31.1949H26.7141V8.63495Z" fill="#212121"/>
<path d="M36.342 8.52894H40.1091V11.7459C40.8122 10.8261 41.6382 10.0072 42.564 9.31193C43.8217 8.4508 45.315 7.99986 46.8391 8.02094C48.4034 7.94459 49.9453 8.41635 51.199 9.35493C51.9097 9.97997 52.4857 10.7431 52.892 11.5979C53.6481 10.465 54.6734 9.53734 55.876 8.89793C57.071 8.30041 58.3922 7.99928 59.728 8.01994C62.776 8.01994 64.8501 9.11993 65.9501 11.3199C66.6067 12.8258 66.9108 14.4617 66.8391 16.1029V31.1929H62.881V15.4499C62.9494 14.8789 62.8825 14.2999 62.6859 13.7595C62.4892 13.2191 62.1683 12.7325 61.749 12.3389C60.9468 11.7601 59.9758 11.4626 58.9871 11.4929C57.5531 11.4684 56.1666 12.0069 55.1251 12.9929C54.0457 13.9929 53.506 15.6649 53.506 18.0089V31.1939H49.6331V16.4019C49.7038 15.2532 49.5159 14.1033 49.0831 13.0369C48.7503 12.4917 48.2689 12.0527 47.6953 11.7716C47.1217 11.4905 46.4798 11.3789 45.845 11.4499C44.3667 11.4661 42.9551 12.0673 41.9191 13.1219C40.7411 14.2366 40.152 16.2543 40.152 19.1749V31.1959H36.342V8.52894Z" fill="#212121"/>
<path d="M86.45 9.15299C87.8333 9.80734 89.0167 10.8192 89.878 12.084C90.6615 13.2945 91.178 14.6582 91.393 16.084C91.6637 17.7362 91.7762 19.4104 91.729 21.084H75.242C75.2103 23.0542 75.7739 24.9882 76.859 26.633C77.4044 27.3429 78.118 27.9058 78.9355 28.2709C79.7529 28.636 80.6484 28.7917 81.541 28.724C82.4256 28.7623 83.3076 28.605 84.1244 28.2632C84.9411 27.9215 85.6724 27.4038 86.266 26.747C86.9266 25.9775 87.4052 25.069 87.666 24.089H91.412C91.2619 25.0703 90.9281 26.0144 90.428 26.872C89.9415 27.8004 89.3121 28.6468 88.563 29.38C87.3835 30.5258 85.9062 31.3178 84.299 31.666C83.2872 31.9032 82.2503 32.017 81.211 32.005C79.8724 32.0256 78.5446 31.7618 77.3155 31.231C76.0863 30.7002 74.9839 29.9146 74.081 28.926C72.1324 26.8727 71.1581 23.998 71.1581 20.302C71.0144 17.0842 72.063 13.9266 74.1031 11.434C75.0475 10.3234 76.2304 9.44022 77.5636 8.85032C78.8968 8.26041 80.3459 7.97898 81.803 8.02698C83.4192 8.03004 85.0117 8.41592 86.45 9.15299ZM87.8141 18.053C87.7363 16.6735 87.3715 15.3254 86.743 14.095C86.2293 13.1918 85.4691 12.4535 84.5513 11.9663C83.6335 11.4792 82.596 11.2633 81.56 11.344C80.739 11.3281 79.9242 11.489 79.1709 11.8158C78.4175 12.1426 77.7433 12.6276 77.194 13.238C75.9965 14.5562 75.3309 16.272 75.326 18.053H87.8141Z" fill="#212121"/>
<path d="M96.5551 8.52909H100.174V11.7461C101.085 10.5537 102.248 9.57801 103.581 8.88908C104.831 8.29924 106.199 8.0024 107.581 8.0211C110.798 8.0211 112.97 9.14275 114.099 11.3861C114.804 13.0497 115.122 14.8516 115.03 16.6561V31.1961H111.157V16.9091C111.203 15.7627 110.993 14.6204 110.543 13.5651C110.218 12.8789 109.692 12.3085 109.034 11.9302C108.375 11.552 107.617 11.3841 106.861 11.4491C106.111 11.429 105.362 11.5218 104.639 11.7241C103.558 12.0592 102.601 12.7071 101.888 13.5861C101.298 14.2497 100.874 15.0438 100.65 15.9031C100.43 17.0285 100.334 18.1747 100.365 19.3211V31.1941H96.5551V8.52909Z" fill="#212121"/>
<path d="M133.114 9.228C133.993 9.84333 134.769 10.5932 135.414 11.45V0H139.075V31.2H135.647V28.047C134.891 29.32 133.806 30.3655 132.505 31.073C131.216 31.7124 129.791 32.0318 128.352 32.004C127.094 31.9966 125.853 31.7066 124.722 31.1553C123.59 30.604 122.597 29.8056 121.816 28.819C119.884 26.4297 118.9 23.4119 119.054 20.343C118.981 17.2897 119.862 14.2895 121.575 11.761C122.363 10.5896 123.44 9.64055 124.701 9.00488C125.961 8.36922 127.364 8.06831 128.775 8.13101C130.296 8.07692 131.801 8.45743 133.114 9.228ZM124.614 26.222C125.138 27.0373 125.873 27.6958 126.74 28.1279C127.608 28.5601 128.576 28.7498 129.542 28.677C130.395 28.6831 131.236 28.4787 131.99 28.0818C132.745 27.685 133.39 27.108 133.868 26.402C135.118 24.4635 135.714 22.1751 135.568 19.873C135.568 17.0063 134.985 14.8867 133.82 13.514C133.305 12.8638 132.649 12.3398 131.901 11.9821C131.153 11.6244 130.333 11.4424 129.504 11.45C128.612 11.4267 127.727 11.6137 126.92 11.9959C126.113 12.3781 125.408 12.9447 124.861 13.65C123.675 15.1167 123.082 17.2753 123.082 20.126C123.004 22.2617 123.533 24.3758 124.61 26.222H124.614Z" fill="#212121"/>
<path d="M142.255 23.2241L149.403 22.7761C149.48 23.7279 149.806 24.6428 150.348 25.4291C150.744 25.921 151.251 26.3114 151.828 26.5681C152.405 26.8248 153.035 26.9403 153.665 26.9051C154.556 26.9633 155.437 26.6953 156.145 26.1511C156.412 25.9431 156.629 25.6779 156.779 25.375C156.93 25.0722 157.011 24.7393 157.016 24.4011C157.01 24.0757 156.932 23.7556 156.789 23.4633C156.646 23.171 156.44 22.9136 156.187 22.7091C155.021 21.9682 153.708 21.4876 152.339 21.3001C149.044 20.5594 146.695 19.5754 145.291 18.3481C144.607 17.7754 144.061 17.056 143.694 16.2434C143.326 15.4307 143.147 14.5457 143.168 13.6541C143.172 12.3923 143.55 11.16 144.254 10.1131C145.06 8.93542 146.197 8.02327 147.521 7.49208C149.43 6.77779 151.463 6.4534 153.5 6.53807C156.607 6.53807 158.975 7.11574 160.606 8.27107C161.459 8.92684 162.161 9.75903 162.664 10.7108C163.166 11.6626 163.457 12.7115 163.517 13.7861L156.436 14.2001C156.341 13.2871 155.92 12.4391 155.25 11.8121C154.53 11.277 153.645 11.0128 152.75 11.0661C152.047 11.0147 151.349 11.2115 150.776 11.6221C150.569 11.7813 150.401 11.9861 150.286 12.2205C150.171 12.455 150.111 12.7128 150.112 12.9741C150.119 13.1782 150.171 13.3782 150.266 13.559C150.361 13.7398 150.496 13.8967 150.66 14.0181C151.424 14.4994 152.284 14.8067 153.18 14.9181C155.608 15.3554 157.977 16.0764 160.237 17.0661C161.503 17.6547 162.578 18.5889 163.337 19.7611C163.988 20.848 164.324 22.0944 164.307 23.3611C164.314 24.8951 163.864 26.3965 163.013 27.6731C162.13 29.0025 160.875 30.0416 159.404 30.6601C157.543 31.3975 155.55 31.7446 153.549 31.6801C149.416 31.6801 146.552 30.8841 144.958 29.2921C143.35 27.6649 142.389 25.5079 142.255 23.2241Z" fill="black"/>
<path d="M184.281 21.3161L190.865 23.3061C190.502 24.9785 189.79 26.5552 188.775 27.9331C187.849 29.15 186.631 30.1132 185.234 30.7331C183.525 31.419 181.692 31.7409 179.852 31.6781C177.636 31.7579 175.428 31.3652 173.375 30.5261C171.562 29.6318 170.053 28.2222 169.038 26.4741C167.739 24.2215 167.106 21.6463 167.213 19.0481C167.213 15.0261 168.283 11.9351 170.422 9.77513C172.561 7.61512 175.588 6.53479 179.502 6.53413C182.044 6.39295 184.567 7.0416 186.725 8.39112C188.611 9.81938 189.981 11.8215 190.631 14.0961L183.997 15.5721C183.84 14.9955 183.594 14.4472 183.267 13.9471C182.865 13.3884 182.337 12.9335 181.724 12.6201C181.091 12.3051 180.392 12.146 179.685 12.1561C178.909 12.1241 178.139 12.2972 177.452 12.6581C176.765 13.0189 176.185 13.5546 175.771 14.2111C174.978 15.6759 174.621 17.3371 174.743 18.9981C174.743 21.6928 175.152 23.5398 175.971 24.5391C176.39 25.0397 176.92 25.4358 177.518 25.6961C178.117 25.9565 178.768 26.0739 179.42 26.0391C180.018 26.0824 180.619 25.9967 181.181 25.7878C181.743 25.5789 182.254 25.2516 182.679 24.8281C183.511 23.8176 184.063 22.6067 184.281 21.3161Z" fill="black"/>
<path d="M209.462 27.2541H200.932L199.747 31.2681H192.076L201.215 6.95508H209.41L218.546 31.2681H210.679L209.462 27.2541ZM207.903 21.9971L205.22 13.2571L202.564 21.9971H207.903Z" fill="black"/>
<path d="M235.882 27.2541H227.352L226.167 31.2681H218.496L227.634 6.95508H235.829L244.965 31.2681H237.098L235.882 27.2541ZM234.323 21.9971L231.64 13.2571L228.985 21.9971H234.323Z" fill="black"/>
<path d="M246.043 23.2241L253.191 22.7761C253.268 23.7278 253.594 24.6427 254.136 25.4291C254.532 25.921 255.039 26.3114 255.616 26.5681C256.193 26.8248 256.823 26.9403 257.453 26.9051C258.344 26.9633 259.225 26.6953 259.933 26.1511C260.2 25.943 260.416 25.6778 260.567 25.375C260.718 25.0721 260.799 24.7393 260.804 24.4011C260.798 24.0757 260.72 23.7556 260.577 23.4633C260.434 23.171 260.228 22.9136 259.975 22.7091C258.809 21.9682 257.496 21.4876 256.127 21.3001C252.832 20.5594 250.483 19.5754 249.079 18.3481C248.395 17.7754 247.849 17.056 247.482 16.2434C247.114 15.4307 246.935 14.5457 246.956 13.6541C246.96 12.3923 247.338 11.1599 248.042 10.1131C248.848 8.93534 249.985 8.02317 251.309 7.49208C253.218 6.77779 255.251 6.4534 257.288 6.53807C260.395 6.53807 262.764 7.11574 264.395 8.27107C265.248 8.92698 265.95 9.75918 266.452 10.7109C266.955 11.6627 267.246 12.7116 267.306 13.7861L260.224 14.2001C260.13 13.2871 259.708 12.439 259.038 11.8121C258.318 11.277 257.433 11.0128 256.538 11.0661C255.835 11.0148 255.137 11.2115 254.564 11.6221C254.357 11.7814 254.19 11.9862 254.075 12.2207C253.96 12.4551 253.9 12.7129 253.901 12.9741C253.907 13.1781 253.96 13.378 254.055 13.5588C254.15 13.7396 254.284 13.8966 254.448 14.0181C255.212 14.4994 256.072 14.8067 256.968 14.9181C259.396 15.3554 261.765 16.0764 264.025 17.0661C265.291 17.6547 266.366 18.5889 267.125 19.7611C267.776 20.848 268.111 22.0944 268.095 23.3611C268.102 24.8951 267.652 26.3965 266.801 27.6731C265.918 29.0026 264.662 30.0418 263.191 30.6601C261.33 31.3975 259.337 31.7446 257.336 31.6801C253.203 31.6801 250.339 30.8841 248.745 29.2921C247.137 27.6646 246.177 25.5077 246.043 23.2241Z" fill="black"/>
<path d="M272.181 6.9541H279.71V31.2671H272.181V6.9541Z" fill="black"/>
</svg>
